# xmcd
#
# Track frame offsets: 
#        150
#        17187
#        52512
#        88057
#        128482
#
# Disc length: 2148 seconds
#
# Revision: 2
# Processed by: cddbd v1.4PL0 Copyright (c) Steve Scherf et al.
# Submitted via: ExactAudioCopy v0.90b4
#
DISCID=2f086205
DTITLE=Reba McEntire - You Keep Me Hangin' On - Single
DYEAR=1996
DGENRE=Country
TTITLE0=Classic Paradise Radio Mix
TTITLE1=Classic Paradise Mix
TTITLE2=Classic Paradise Instrumental
TTITLE3=Deep Love Mix
TTITLE4=Aphrodisiac Mix
EXTD=
EXTT0=
EXTT1=
EXTT2=
EXTT3=
EXTT4=
PLAYORDER=
